<svg xmlns="http://www.w3.org/2000/svg" width="173" height="197" viewBox="0 0 173 197">
  <defs>
    <style>
      .cls-1 {
        fill: #fff;
      }
    </style>
  </defs>
  <title>primefaces</title>
  <g id="Layer_2" data-name="Layer 2">
    <g id="Layer_1-2" data-name="Layer 1">
      <g>
        <polygon class="cls-1" points="127.87 90.23 114.33 87.22 124.86 102.26 124.86 148.88 160.97 118.8 160.97 67.67 144.42 73.69 127.87 90.23"/>
        <polygon class="cls-1" points="43.63 90.23 27.08 73.69 10.53 67.67 10.53 118.8 46.63 148.88 46.63 102.26 57.16 87.22 43.63 90.23"/>
        <polygon class="cls-1" points="100.79 91.73 70.7 91.73 63.18 87.22 51.15 105.27 51.15 133.04 72.21 147.38 72.21 153.39 51.15 139.05 51.15 145.07 72.21 159.41 72.21 165.42 51.15 151.08 51.15 157.1 72.21 171.44 72.21 177.45 51.15 163.12 51.15 172.94 60.17 186.47 70.7 197 100.79 197 111.32 186.47 120.35 172.94 120.35 163.2 99.29 177.45 99.29 171.44 120.35 157.19 120.35 151.17 99.29 165.42 99.29 159.41 120.35 145.16 120.35 139.14 99.29 153.39 99.29 147.38 120.35 133.13 120.35 105.27 108.31 87.22 100.79 91.73"/>
        <polygon class="cls-1" points="124.86 177.45 144.42 157.9 144.42 138.35 124.86 154.89 124.86 177.45"/>
        <polygon class="cls-1" points="27.08 157.9 46.63 177.45 46.63 154.89 27.08 138.35 27.08 157.9"/>
        <polygon class="cls-1" points="75.22 85.72 82.74 85.72 82.74 0 76.72 0 76.72 37.59 70.7 34.59 70.7 0 66.19 0 54.21 28.45 0 24.06 9.03 61.66 73.71 85.72 75.22 85.72"/>
        <polygon class="cls-1" points="117.29 28.46 105.3 0 100.79 0 100.79 34.59 94.77 37.59 94.77 0 88.76 0 88.76 85.72 97.78 85.72 99.29 85.72 99.29 85.72 99.29 85.72 163.97 61.66 173 24.06 117.29 28.46"/>
        <polygon class="cls-1" points="151.94 21.05 130.88 0 109.82 0 120.35 24.06 151.94 21.05"/>
        <polygon class="cls-1" points="61.68 0 40.62 0 19.56 21.05 51.15 24.06 61.68 0"/>
      </g>
    </g>
  </g>
</svg>
